<svg width="100" height="100" viewBox="0 0 100 100" fill="none" xmlns="http://www.w3.org/2000/svg">
<path d="M9.19873 26.4434L50 2.88675L90.8013 26.4434V73.5566L50 97.1133L9.19873 73.5566V26.4434Z" fill="#0A4013" stroke="#44FE63" stroke-width="5"/>
<path d="M50.0819 25.592C56.6099 25.592 61.4819 27.008 64.6979 29.84C67.9619 32.672 69.5939 36.704 69.5939 41.936C69.5939 44.288 69.2579 46.544 68.5859 48.704C67.9139 50.816 66.8099 52.736 65.2739 54.464C63.7859 56.144 61.7939 57.488 59.2979 58.496C56.8019 59.456 53.7299 59.936 50.0819 59.936H46.1939V77H32.2979V25.592H50.0819ZM49.7939 36.824H46.1939V48.632H48.9299C50.1299 48.632 51.2339 48.44 52.2419 48.056C53.2979 47.624 54.1379 46.952 54.7619 46.04C55.3859 45.08 55.6979 43.832 55.6979 42.296C55.6979 40.664 55.2179 39.344 54.2579 38.336C53.2979 37.328 51.8099 36.824 49.7939 36.824Z" fill="#44FE63"/>
</svg>
